<?xml version="1.0" encoding="utf-8"?>
<!-- Generator: Adobe Illustrator 27.2.0, SVG Export Plug-In . SVG Version: 6.00 Build 0)  -->
<svg version="1.1" id="Layer_1" xmlns="http://www.w3.org/2000/svg" xmlns:xlink="http://www.w3.org/1999/xlink" x="0px" y="0px"
	 viewBox="0 0 740.1 114.9" style="enable-background:new 0 0 740.1 114.9;" xml:space="preserve">
<style type="text/css">
	.st0{fill:#231F20;}
	.st1{fill:#FF008C;}
</style>
<g>
	<path class="st0" d="M113.8,49.4c-2.6-4.2-6.1-7.4-10.5-9.8c-4.4-2.3-9.3-3.5-14.8-3.5c-5.3,0-10.3,1.2-14.7,3.5
		c-4.2,2.2-7.6,5.2-10.4,9.1c-2.5-3.9-5.7-7-9.8-9.1c-4.3-2.3-9.1-3.5-14.5-3.5s-10.2,1.2-14.5,3.5c-2.8,1.5-5.2,3.5-7.2,5.8v-7.7H0
		v75.5h17.3v-45c0-3.4,0.7-6.2,2.2-8.6c1.5-2.4,3.4-4.2,5.9-5.4c2.5-1.3,5.3-1.9,8.4-1.9c4.6,0,8.5,1.4,11.6,4.2
		c3.1,2.8,4.7,6.7,4.7,11.7v45h17.3v-45c0-3.4,0.7-6.2,2.2-8.6c1.5-2.4,3.5-4.2,6-5.4c2.5-1.3,5.3-1.9,8.3-1.9
		c4.6,0,8.5,1.4,11.6,4.2c3.1,2.8,4.7,6.7,4.7,11.7v45h17.3V64.5C117.7,58.6,116.4,53.6,113.8,49.4z"/>
	<path class="st0" d="M190.2,37.8v8.4c-2.2-2.5-4.8-4.6-7.8-6.3c-4.5-2.5-9.6-3.7-15.3-3.7c-6.8,0-13,1.8-18.5,5.3
		c-5.5,3.5-9.9,8.2-13.1,14.2c-3.2,5.9-4.8,12.6-4.8,20.1c0,7.3,1.6,14,4.8,19.9c3.2,5.9,7.6,10.6,13.1,14.1
		c5.5,3.5,11.7,5.2,18.5,5.2c5.8,0,10.9-1.2,15.4-3.7c3-1.6,5.6-3.7,7.7-6.2v8.3h17.3V37.8H190.2z M185.4,92
		c-3.9,4.3-9.1,6.5-15.5,6.5c-4.2,0-7.9-1-11.1-2.9c-3.2-1.9-5.7-4.6-7.6-8.1c-1.8-3.5-2.8-7.4-2.8-12c0-4.5,0.9-8.5,2.8-12
		c1.8-3.5,4.4-6.2,7.6-8.1c3.2-1.9,6.9-2.9,11.1-2.9c4.3,0,8,1,11.2,2.9c3.2,1.9,5.7,4.6,7.5,8.1c1.8,3.5,2.7,7.4,2.7,12
		C191.3,82.2,189.4,87.7,185.4,92z"/>
	<polygon class="st0" points="296.7,113.3 263.4,74 295.2,37.8 274.6,37.8 244,73.3 244,0 226.7,0 226.7,113.3 244,113.3 244,76.3 
		274.7,113.3 	"/>
	<path class="st0" d="M368.9,54.4c-3.1-5.7-7.3-10.1-12.7-13.4c-5.4-3.3-11.6-4.9-18.6-4.9c-7.2,0-13.8,1.7-19.7,5.2
		c-5.9,3.5-10.6,8.2-14.1,14.1c-3.5,5.9-5.2,12.6-5.2,20.1c0,7.4,1.8,14.2,5.3,20.1c3.5,6,8.3,10.7,14.3,14.1
		c6,3.4,12.8,5.1,20.4,5.1c5.9,0,11.4-1.1,16.7-3.3c5.2-2.2,9.7-5.5,13.4-9.8l-11-11.2c-2.3,2.6-5.1,4.6-8.4,6
		c-3.3,1.4-6.9,2-10.8,2c-4.5,0-8.5-1-12-2.9c-3.5-1.9-6.1-4.7-8-8.3c-0.9-1.7-1.6-3.5-2.1-5.5h56.3c0.3-1.6,0.6-3,0.7-4.3
		c0.2-1.3,0.2-2.6,0.2-3.9C373.5,66.6,372,60.1,368.9,54.4z M318.1,62.9c1.8-3.4,4.3-6.1,7.6-7.9c3.3-1.9,7.1-2.8,11.5-2.8
		c4.2,0,7.7,0.8,10.6,2.5c2.9,1.7,5.1,4.1,6.7,7.2c0.9,1.8,1.5,3.8,2,6h-40.2C316.7,66,317.4,64.4,318.1,62.9z"/>
</g>
<path class="st1" d="M430.5,66.2c-3.4,0-6.1-1.1-8.3-3.4c-2.2-2.3-3.2-5-3.2-8.3c0-3.4,1.1-6.1,3.2-8.3c2.1-2.2,4.9-3.3,8.3-3.3
	c3.4,0,6.1,1.1,8.3,3.3c2.1,2.2,3.2,5,3.2,8.3c0,3.3-1.1,6-3.2,8.3C436.6,65.1,433.8,66.2,430.5,66.2z M430.5,114.9
	c-3.4,0-6.1-1.1-8.3-3.4c-2.2-2.3-3.2-5-3.2-8.3c0-3.4,1.1-6.1,3.2-8.3c2.1-2.2,4.9-3.3,8.3-3.3c3.4,0,6.1,1.1,8.3,3.3
	c2.1,2.2,3.2,5,3.2,8.3c0,3.3-1.1,6-3.2,8.3C436.6,113.7,433.8,114.9,430.5,114.9z"/>
<path class="st1" d="M473.1,66.2c-3.4,0-6.1-1.1-8.3-3.4c-2.2-2.3-3.2-5-3.2-8.3c0-3.4,1.1-6.1,3.2-8.3c2.1-2.2,4.9-3.3,8.3-3.3
	c3.4,0,6.1,1.1,8.3,3.3c2.1,2.2,3.2,5,3.2,8.3c0,3.3-1.1,6-3.2,8.3C479.2,65.1,476.5,66.2,473.1,66.2z M473.1,114.9
	c-3.4,0-6.1-1.1-8.3-3.4c-2.2-2.3-3.2-5-3.2-8.3c0-3.4,1.1-6.1,3.2-8.3c2.1-2.2,4.9-3.3,8.3-3.3c3.4,0,6.1,1.1,8.3,3.3
	c2.1,2.2,3.2,5,3.2,8.3c0,3.3-1.1,6-3.2,8.3C479.2,113.7,476.5,114.9,473.1,114.9z"/>
<g>
	<path class="st0" d="M535.6,113.3V0h17.3v113.3H535.6z"/>
	<path class="st0" d="M626.9,37.8v8.4c-2.2-2.5-4.8-4.6-7.8-6.3c-4.5-2.5-9.6-3.7-15.3-3.7c-6.8,0-13,1.8-18.5,5.3
		c-5.5,3.5-9.9,8.2-13.1,14.2c-3.2,5.9-4.8,12.6-4.8,20.1c0,7.3,1.6,14,4.8,19.9c3.2,5.9,7.6,10.6,13.1,14.1
		c5.5,3.5,11.7,5.2,18.5,5.2c5.8,0,10.9-1.2,15.4-3.7c3-1.6,5.6-3.7,7.7-6.2v8.3h17.3V37.8H626.9z M622.1,92
		c-3.9,4.3-9.1,6.5-15.5,6.5c-4.2,0-7.9-1-11.1-2.9c-3.2-1.9-5.7-4.6-7.6-8.1c-1.8-3.5-2.8-7.4-2.8-12c0-4.5,0.9-8.5,2.8-12
		c1.8-3.5,4.4-6.2,7.6-8.1c3.2-1.9,6.9-2.9,11.1-2.9c4.3,0,8,1,11.2,2.9c3.2,1.9,5.7,4.6,7.5,8.1c1.8,3.5,2.7,7.4,2.7,12
		C628,82.2,626,87.7,622.1,92z"/>
	<path class="st0" d="M735.3,55.6c-3.2-5.9-7.6-10.6-13.1-14.2c-5.5-3.5-11.7-5.3-18.5-5.3c-5.7,0-10.8,1.2-15.3,3.7
		c-3.1,1.7-5.7,3.8-7.9,6.3V0h-17.3v113.3h17.3V105c2.1,2.5,4.7,4.5,7.7,6.2c4.5,2.5,9.6,3.7,15.4,3.7c6.8,0,13-1.7,18.5-5.2
		c5.5-3.5,9.9-8.2,13.1-14.1c3.2-5.9,4.8-12.6,4.8-19.9C740.1,68.2,738.5,61.5,735.3,55.6z M719.6,87.5c-1.8,3.5-4.4,6.2-7.6,8.1
		c-3.2,1.9-6.9,2.9-11.1,2.9c-4.2,0-7.9-1-11.2-2.9c-3.3-1.9-5.8-4.6-7.6-8.1c-1.8-3.5-2.7-7.4-2.7-12c0-4.5,0.9-8.5,2.7-12
		c1.8-3.5,4.3-6.2,7.6-8.1c3.2-1.9,7-2.9,11.2-2.9c4.2,0,7.9,1,11.1,2.9c3.2,1.9,5.7,4.6,7.6,8.1c1.8,3.5,2.8,7.4,2.8,12
		C722.4,80,721.4,84,719.6,87.5z"/>
</g>
</svg>
